ffmpeg version 3.4.2 Copyright (c) 2000-2018 the FFmpeg developers
  built with Apple LLVM version 9.0.0 (clang-900.0.39.2)
  configuration: --prefix=/usr/local/Cellar/ffmpeg/3.4.2 --enable-shared --enable-pthreads --enable-version3 --enable-hardcoded-tables --enable-avresample --cc=clang --host-cflags= --host-ldflags= --disable-jack --enable-gpl --enable-libass --enable-libfdk-aac --enable-libfontconfig --enable-libfreetype --enable-libmp3lame --enable-libopus --enable-libvorbis --enable-libvpx --enable-libx264 --enable-libx265 --enable-libxvid --enable-opencl --enable-videotoolbox --disable-lzma --enable-nonfree
  libavutil      55. 78.100 / 55. 78.100
  libavcodec     57.107.100 / 57.107.100
  libavformat    57. 83.100 / 57. 83.100
  libavdevice    57. 10.100 / 57. 10.100
  libavfilter     6.107.100 /  6.107.100
  libavresample   3.  7.  0 /  3.  7.  0
  libswscale      4.  8.100 /  4.  8.100
  libswresample   2.  9.100 /  2.  9.100
  libpostproc    54.  7.100 / 54.  7.100
Input #0, rawvideo, from 'pipe:':
  Duration: N/A, start: 0.000000, bitrate: 6797721 kb/s
    Stream #0:0: Video: rawvideo (RGB[24] / 0x18424752), rgb24, 10240x922, 6797721 kb/s, 30 tbr, 30 tbn, 30 tbc
Stream mapping:
  Stream #0:0 -> #0:0 (rawvideo (native) -> h264 (libx264))
[libx264 @ 0x7ff850009600] using cpu capabilities: MMX2 SSE2Fast SSSE3 SSE4.2 AVX FMA3 BMI2 AVX2
[libx264 @ 0x7ff850009600] profile High, level 6.0
[libx264 @ 0x7ff850009600] 264 - core 152 r2854 e9a5903 - H.264/MPEG-4 AVC codec - Copyleft 2003-2017 - http://www.videolan.org/x264.html - options: cabac=1 ref=3 deblock=1:0:0 analyse=0x3:0x113 me=hex subme=7 psy=1 psy_rd=1.00:0.00 mixed_ref=1 me_range=16 chroma_me=1 trellis=1 8x8dct=1 cqm=0 deadzone=21,11 fast_pskip=1 chroma_qp_offset=-2 threads=6 lookahead_threads=1 sliced_threads=0 nr=0 decimate=1 interlaced=0 bluray_compat=0 constrained_intra=0 bframes=3 b_pyramid=2 b_adapt=1 b_bias=0 direct=1 weightb=1 open_gop=0 weightp=2 keyint=250 keyint_min=25 scenecut=40 intra_refresh=0 rc_lookahead=40 rc=crf mbtree=1 crf=15.0 qcomp=0.60 qpmin=0 qpmax=69 qpstep=4 ip_ratio=1.40 aq=1:1.00
Output #0, mp4, to '/Users/nicolasescarpentier/github/itp_bigscreens/tests/geo_vids/processing-movie.mp4':
  Metadata:
    comment         : Made with Video Export for Processing - https://git.io/vAXLk
    encoder         : Lavf57.83.100
    Stream #0:0: Video: h264 (libx264) (avc1 / 0x31637661), yuv420p, 10240x922, q=-1--1, 30 fps, 15360 tbn, 30 tbc
    Metadata:
      encoder         : Lavc57.107.100 libx264
    Side data:
      cpb: bitrate max/min/avg: 0/0/0 buffer size: 0 vbv_delay: -1
frame=    4 fps=0.0 q=0.0 size=       0kB time=00:00:00.00 bitrate=N/A speed=   0x    frame=    7 fps=6.3 q=0.0 size=       0kB time=00:00:00.00 bitrate=N/A speed=   0x    frame=   10 fps=5.8 q=0.0 size=       0kB time=00:00:00.00 bitrate=N/A speed=   0x    frame=   13 fps=5.5 q=0.0 size=       0kB time=00:00:00.00 bitrate=N/A speed=   0x    frame=   16 fps=5.4 q=0.0 size=       0kB time=00:00:00.00 bitrate=N/A speed=   0x    frame=   19 fps=5.3 q=0.0 size=       0kB time=00:00:00.00 bitrate=N/A speed=   0x    frame=   22 fps=5.3 q=0.0 size=       0kB time=00:00:00.00 bitrate=N/A speed=   0x    frame=   25 fps=5.2 q=0.0 size=       0kB time=00:00:00.00 bitrate=N/A speed=   0x    frame=   28 fps=5.2 q=0.0 size=       0kB time=00:00:00.00 bitrate=N/A speed=   0x    frame=   31 fps=5.2 q=0.0 size=       0kB time=00:00:00.00 bitrate=N/A speed=   0x    frame=   34 fps=5.1 q=0.0 size=       0kB time=00:00:00.00 bitrate=N/A speed=   0x    frame=   36 fps=5.0 q=0.0 size=       0kB time=00:00:00.00 bitrate=N/A speed=   0x    frame=   39 fps=5.0 q=0.0 size=       0kB time=00:00:00.00 bitrate=N/A speed=   0x    frame=   42 fps=5.0 q=0.0 size=       0kB time=00:00:00.00 bitrate=N/A speed=   0x    frame=   45 fps=5.0 q=0.0 size=       0kB time=00:00:00.00 bitrate=N/A speed=   0x    frame=   47 fps=4.1 q=0.0 size=       0kB time=00:00:00.00 bitrate=N/A speed=   0x    frame=   50 fps=4.1 q=0.0 size=       0kB time=00:00:00.00 bitrate=N/A speed=   0x    frame=   53 fps=4.1 q=21.0 size=       0kB time=00:00:00.00 bitrate=5907.7kbits/s speed=5.08e-06x    frame=   56 fps=4.1 q=21.0 size=       0kB time=00:00:00.10 bitrate=   3.8kbits/s speed=0.00741x    frame=   59 fps=4.1 q=21.0 size=       0kB time=00:00:00.20 bitrate=   1.9kbits/s speed=0.0141x    frame=   62 fps=4.1 q=21.0 size=       0kB time=00:00:00.30 bitrate=   1.3kbits/s speed=0.0201x    frame=   65 fps=4.2 q=21.0 size=       0kB time=00:00:00.40 bitrate=   1.0kbits/s speed=0.0256x    frame=   68 fps=4.2 q=21.0 size=       0kB time=00:00:00.50 bitrate=   0.8kbits/s speed=0.0307x    frame=   71 fps=4.2 q=21.0 size=     256kB time=00:00:00.60 bitrate=3495.5kbits/s speed=0.0353x    frame=   74 fps=4.2 q=21.0 size=     256kB time=00:00:00.70 bitrate=2996.2kbits/s speed=0.0394x    frame=   77 fps=4.2 q=21.0 size=     256kB time=00:00:00.80 bitrate=2621.7kbits/s speed=0.0435x    frame=   80 fps=4.2 q=21.0 size=     256kB time=00:00:00.90 bitrate=2330.4kbits/s speed=0.0471x    frame=   83 fps=4.2 q=21.0 size=     256kB time=00:00:01.00 bitrate=2097.4kbits/s speed=0.0506x    frame=   85 fps=4.2 q=21.0 size=     256kB time=00:00:01.06 bitrate=1966.3kbits/s speed=0.0525x    frame=   88 fps=4.2 q=21.0 size=     256kB time=00:00:01.16 bitrate=1797.8kbits/s speed=0.0554x    frame=   91 fps=4.2 q=21.0 size=     256kB time=00:00:01.26 bitrate=1655.9kbits/s speed=0.0583x    frame=   94 fps=4.2 q=21.0 size=     256kB time=00:00:01.36 bitrate=1534.7kbits/s speed=0.0609x    frame=   97 fps=4.2 q=21.0 size=     256kB time=00:00:01.46 bitrate=1430.1kbits/s speed=0.0634x    frame=  100 fps=4.2 q=21.0 size=     256kB time=00:00:01.56 bitrate=1338.8kbits/s speed=0.0658x    frame=  103 fps=4.2 q=21.0 size=     256kB time=00:00:01.66 bitrate=1258.5kbits/s speed=0.0681x    frame=  105 fps=4.2 q=21.0 size=     256kB time=00:00:01.73 bitrate=1210.1kbits/s speed=0.0693x    frame=  108 fps=4.2 q=21.0 size=     256kB time=00:00:01.83 bitrate=1144.1kbits/s speed=0.0715x    frame=  111 fps=4.2 q=21.0 size=     256kB time=00:00:01.93 bitrate=1084.9kbits/s speed=0.0734x    frame=  114 fps=4.2 q=21.0 size=     256kB time=00:00:02.03 bitrate=1031.5kbits/s speed=0.0752x    frame=  117 fps=4.2 q=21.0 size=     256kB time=00:00:02.13 bitrate= 983.2kbits/s speed=0.077x    frame=  120 fps=4.2 q=21.0 size=     256kB time=00:00:02.23 bitrate= 939.2kbits/s speed=0.0786x    frame=  123 fps=4.2 q=21.0 size=     256kB time=00:00:02.33 bitrate= 898.9kbits/s speed=0.0803x    frame=  126 fps=4.2 q=21.0 size=     256kB time=00:00:02.43 bitrate= 862.0kbits/s speed=0.0817x    frame=  129 fps=4.2 q=21.0 size=     256kB time=00:00:02.53 bitrate= 828.0kbits/s speed=0.0831x    frame=  132 fps=4.2 q=21.0 size=     256kB time=00:00:02.63 bitrate= 796.5kbits/s speed=0.0845x    frame=  135 fps=4.2 q=21.0 size=     256kB time=00:00:02.73 bitrate= 767.4kbits/s speed=0.0857x    frame=  138 fps=4.2 q=21.0 size=     256kB time=00:00:02.83 bitrate= 740.3kbits/s speed=0.0869x    frame=  141 fps=4.2 q=21.0 size=     256kB time=00:00:02.93 bitrate= 715.1kbits/s speed=0.0881x    frame=  144 fps=4.2 q=21.0 size=     256kB time=00:00:03.03 bitrate= 691.5kbits/s speed=0.0893x    frame=  147 fps=4.2 q=21.0 size=     256kB time=00:00:03.13 bitrate= 669.4kbits/s speed=0.0905x    frame=  149 fps=4.2 q=21.0 size=     256kB time=00:00:03.20 bitrate= 655.5kbits/s speed=0.091x    frame=  152 fps=4.2 q=21.0 size=     256kB time=00:00:03.30 bitrate= 635.6kbits/s speed=0.0921x    frame=  155 fps=4.2 q=21.0 size=     256kB time=00:00:03.40 bitrate= 616.9kbits/s speed=0.0931x    frame=  158 fps=4.2 q=21.0 size=     256kB time=00:00:03.50 bitrate= 599.3kbits/s speed=0.094x    frame=  161 fps=4.2 q=21.0 size=     256kB time=00:00:03.60 bitrate= 582.6kbits/s speed=0.0949x    frame=  164 fps=4.2 q=21.0 size=     256kB time=00:00:03.70 bitrate= 566.9kbits/s speed=0.0957x    frame=  167 fps=4.2 q=21.0 size=     256kB time=00:00:03.80 bitrate= 552.0kbits/s speed=0.0966x    frame=  169 fps=4.2 q=21.0 size=     256kB time=00:00:03.86 bitrate= 542.5kbits/s speed=0.097x    frame=  172 fps=4.2 q=21.0 size=     256kB time=00:00:03.96 bitrate= 528.8kbits/s speed=0.0979x    frame=  175 fps=4.3 q=21.0 size=     256kB time=00:00:04.06 bitrate= 515.8kbits/s speed=0.0988x    frame=  178 fps=4.3 q=21.0 size=     256kB time=00:00:04.16 bitrate= 503.4kbits/s speed=0.0995x    frame=  181 fps=4.3 q=21.0 size=     256kB time=00:00:04.26 bitrate= 491.6kbits/s speed= 0.1x    frame=  184 fps=4.3 q=21.0 size=     256kB time=00:00:04.36 bitrate= 480.3kbits/s speed=0.101x    frame=  187 fps=4.3 q=21.0 size=     256kB time=00:00:04.46 bitrate= 469.6kbits/s speed=0.102x    frame=  190 fps=4.3 q=21.0 size=     256kB time=00:00:04.56 bitrate= 459.3kbits/s speed=0.102x    frame=  193 fps=4.3 q=21.0 size=     256kB time=00:00:04.66 bitrate= 449.5kbits/s speed=0.103x    frame=  196 fps=4.3 q=21.0 size=     256kB time=00:00:04.76 bitrate= 440.0kbits/s speed=0.104x    frame=  199 fps=4.3 q=21.0 size=     256kB time=00:00:04.86 bitrate= 431.0kbits/s speed=0.104x    frame=  202 fps=4.3 q=21.0 size=     256kB time=00:00:04.96 bitrate= 422.3kbits/s speed=0.105x    frame=  205 fps=4.3 q=21.0 size=     512kB time=00:00:05.06 bitrate= 827.9kbits/s speed=0.105x    frame=  208 fps=4.3 q=21.0 size=     512kB time=00:00:05.16 bitrate= 811.9kbits/s speed=0.106x    frame=  211 fps=4.3 q=21.0 size=     512kB time=00:00:05.26 bitrate= 796.4kbits/s speed=0.106x    frame=  213 fps=4.3 q=21.0 size=     512kB time=00:00:05.33 bitrate= 786.5kbits/s speed=0.106x    frame=  216 fps=4.3 q=21.0 size=     512kB time=00:00:05.43 bitrate= 772.0kbits/s speed=0.107x    frame=  219 fps=4.3 q=21.0 size=     512kB time=00:00:05.53 bitrate= 758.1kbits/s speed=0.108x    frame=  221 fps=4.3 q=21.0 size=     512kB time=00:00:05.60 bitrate= 749.0kbits/s speed=0.108x    frame=  224 fps=4.3 q=21.0 size=     512kB time=00:00:05.70 bitrate= 735.9kbits/s speed=0.108x    frame=  227 fps=4.3 q=21.0 size=     512kB time=00:00:05.80 bitrate= 723.2kbits/s speed=0.109x    frame=  230 fps=4.3 q=21.0 size=     512kB time=00:00:05.90 bitrate= 711.0kbits/s speed=0.109x    frame=  233 fps=4.3 q=21.0 size=     512kB time=00:00:06.00 bitrate= 699.1kbits/s speed=0.11x    frame=  235 fps=4.2 q=21.0 size=     512kB time=00:00:06.06 bitrate= 691.4kbits/s speed=0.11x    frame=  237 fps=4.2 q=21.0 size=     512kB time=00:00:06.13 bitrate= 683.9kbits/s speed=0.11x    frame=  239 fps=4.2 q=21.0 size=     512kB time=00:00:06.20 bitrate= 676.6kbits/s speed=0.11x    frame=  241 fps=4.2 q=21.0 size=     512kB time=00:00:06.26 bitrate= 669.4kbits/s speed=0.11x    frame=  244 fps=4.2 q=21.0 size=     512kB time=00:00:06.36 bitrate= 658.8kbits/s speed=0.111x    frame=  247 fps=4.2 q=21.0 size=     512kB time=00:00:06.46 bitrate= 648.7kbits/s speed=0.111x    frame=  249 fps=4.2 q=21.0 size=     512kB time=00:00:06.53 bitrate= 642.0kbits/s speed=0.111x    frame=  252 fps=4.2 q=21.0 size=     512kB time=00:00:06.63 bitrate= 632.4kbits/s speed=0.112x    frame=  255 fps=4.2 q=21.0 size=     512kB time=00:00:06.73 bitrate= 623.0kbits/s speed=0.112x    frame=  257 fps=4.2 q=21.0 size=     512kB time=00:00:06.80 bitrate= 616.9kbits/s speed=0.112x    frame=  260 fps=4.2 q=21.0 size=     512kB time=00:00:06.90 bitrate= 607.9kbits/s speed=0.113x    frame=  263 fps=4.2 q=21.0 size=     512kB time=00:00:07.00 bitrate= 599.2kbits/s speed=0.113x    frame=  266 fps=4.2 q=21.0 size=     512kB time=00:00:07.10 bitrate= 590.8kbits/s speed=0.113x    frame=  269 fps=4.2 q=21.0 size=     512kB time=00:00:07.20 bitrate= 582.6kbits/s speed=0.114x    frame=  272 fps=4.2 q=21.0 size=     512kB time=00:00:07.30 bitrate= 574.6kbits/s speed=0.114x    frame=  275 fps=4.2 q=21.0 size=     512kB time=00:00:07.40 bitrate= 566.8kbits/s speed=0.114x    frame=  278 fps=4.2 q=21.0 size=     512kB time=00:00:07.50 bitrate= 559.3kbits/s speed=0.115x    frame=  281 fps=4.2 q=21.0 size=     512kB time=00:00:07.60 bitrate= 551.9kbits/s speed=0.115x    frame=  284 fps=4.2 q=21.0 size=     512kB time=00:00:07.70 bitrate= 544.8kbits/s speed=0.115x    frame=  287 fps=4.2 q=21.0 size=     512kB time=00:00:07.80 bitrate= 537.8kbits/s speed=0.115x    frame=  290 fps=4.2 q=21.0 size=     512kB time=00:00:07.90 bitrate= 531.0kbits/s speed=0.116x    frame=  293 fps=4.2 q=21.0 size=     512kB time=00:00:08.00 bitrate= 524.3kbits/s speed=0.116x    frame=  295 fps=4.2 q=21.0 size=     512kB time=00:00:08.06 bitrate= 520.0kbits/s speed=0.115x    frame=  298 fps=4.2 q=21.0 size=     512kB time=00:00:08.16 bitrate= 513.6kbits/s speed=0.115x    frame=  301 fps=4.2 q=21.0 size=     768kB time=00:00:08.26 bitrate= 761.1kbits/s speed=0.115x    frame=  304 fps=4.2 q=21.0 size=     768kB time=00:00:08.36 bitrate= 752.0kbits/s speed=0.116x    frame=  307 fps=4.2 q=21.0 size=     768kB time=00:00:08.46 bitrate= 743.1kbits/s speed=0.116x    frame=  310 fps=4.2 q=21.0 size=     768kB time=00:00:08.56 bitrate= 734.5kbits/s speed=0.116x    frame=  312 fps=4.2 q=21.0 size=     768kB time=00:00:08.63 bitrate= 728.8kbits/s speed=0.116x    frame=  315 fps=4.2 q=21.0 size=     768kB time=00:00:08.73 bitrate= 720.4kbits/s speed=0.117x    frame=  318 fps=4.2 q=21.0 size=     768kB time=00:00:08.83 bitrate= 712.3kbits/s speed=0.117x    frame=  320 fps=4.2 q=21.0 size=     768kB time=00:00:08.90 bitrate= 706.9kbits/s speed=0.117x    frame=  323 fps=4.2 q=21.0 size=     768kB time=00:00:09.00 bitrate= 699.1kbits/s speed=0.117x    frame=  326 fps=4.2 q=21.0 size=     768kB time=00:00:09.10 bitrate= 691.4kbits/s speed=0.118x    frame=  329 fps=4.2 q=21.0 size=     768kB time=00:00:09.20 bitrate= 683.9kbits/s speed=0.118x    frame=  332 fps=4.2 q=21.0 size=     768kB time=00:00:09.30 bitrate= 676.5kbits/s speed=0.118x    frame=  335 fps=4.2 q=21.0 size=     768kB time=00:00:09.40 bitrate= 669.3kbits/s speed=0.118x    frame=  338 fps=4.2 q=21.0 size=     768kB time=00:00:09.50 bitrate= 662.3kbits/s speed=0.119x    frame=  341 fps=4.2 q=21.0 size=     768kB time=00:00:09.60 bitrate= 655.4kbits/s speed=0.119x    frame=  344 fps=4.2 q=21.0 size=     768kB time=00:00:09.70 bitrate= 648.6kbits/s speed=0.119x    frame=  347 fps=4.2 q=21.0 size=    1024kB time=00:00:09.80 bitrate= 856.0kbits/s speed=0.119x    frame=  350 fps=4.2 q=21.0 size=    1024kB time=00:00:09.90 bitrate= 847.4kbits/s speed=0.119x    frame=  353 fps=4.2 q=21.0 size=    1024kB time=00:00:10.00 bitrate= 838.9kbits/s speed=0.12x    frame=  356 fps=4.2 q=21.0 size=    1024kB time=00:00:10.10 bitrate= 830.6kbits/s speed=0.12x    frame=  359 fps=4.2 q=21.0 size=    1024kB time=00:00:10.20 bitrate= 822.4kbits/s speed=0.12x    frame=  362 fps=4.2 q=21.0 size=    1024kB time=00:00:10.30 bitrate= 814.5kbits/s speed=0.12x    frame=  365 fps=4.2 q=21.0 size=    1024kB time=00:00:10.40 bitrate= 806.6kbits/s speed=0.12x    frame=  368 fps=4.2 q=21.0 size=    1024kB time=00:00:10.50 bitrate= 798.9kbits/s speed=0.121x    frame=  371 fps=4.2 q=21.0 size=    1024kB time=00:00:10.60 bitrate= 791.4kbits/s speed=0.121x    frame=  374 fps=4.2 q=21.0 size=    1024kB time=00:00:10.70 bitrate= 784.0kbits/s speed=0.121x    frame=  376 fps=4.2 q=21.0 size=    1024kB time=00:00:10.76 bitrate= 779.2kbits/s speed=0.121x    frame=  378 fps=4.1 q=-1.0 Lsize=    1263kB time=00:00:12.50 bitrate= 827.9kbits/s speed=0.136x    
video:1258kB audio:0kB subtitle:0kB other streams:0kB global headers:0kB muxing overhead: 0.423941%
[libx264 @ 0x7ff850009600] frame I:2     Avg QP:15.11  size:211140
[libx264 @ 0x7ff850009600] frame P:95    Avg QP: 9.39  size:  2130
[libx264 @ 0x7ff850009600] frame B:281   Avg QP: 9.31  size:  2359
[libx264 @ 0x7ff850009600] consecutive B-frames:  0.5%  0.5%  1.6% 97.4%
[libx264 @ 0x7ff850009600] mb I  I16..4: 17.4% 65.6% 17.0%
[libx264 @ 0x7ff850009600] mb P  I16..4:  1.0%  0.3%  0.0%  P16..4:  7.5%  0.1%  0.0%  0.0%  0.0%    skip:91.1%
[libx264 @ 0x7ff850009600] mb B  I16..4:  0.1%  0.0%  0.0%  B16..8: 10.0%  0.3%  0.0%  direct: 0.0%  skip:89.4%  L0:46.1% L1:53.8% BI: 0.1%
[libx264 @ 0x7ff850009600] 8x8 transform intra:45.2% inter:14.6%
[libx264 @ 0x7ff850009600] coded y,uvDC,uvAC intra: 4.9% 0.0% 0.0% inter: 0.0% 0.0% 0.0%
[libx264 @ 0x7ff850009600] i16 v,h,dc,p: 88%  8%  4%  0%
[libx264 @ 0x7ff850009600] i8 v,h,dc,ddl,ddr,vr,hd,vl,hu: 70%  0% 29%  0%  0%  0%  0%  0%  0%
[libx264 @ 0x7ff850009600] i4 v,h,dc,ddl,ddr,vr,hd,vl,hu: 54%  4% 21%  7%  2%  6%  0%  6%  0%
[libx264 @ 0x7ff850009600] i8c dc,h,v,p: 100%  0%  0%  0%
[libx264 @ 0x7ff850009600] Weighted P-Frames: Y:0.0% UV:0.0%
[libx264 @ 0x7ff850009600] ref P L0: 25.2%  0.0% 53.1% 21.8%
[libx264 @ 0x7ff850009600] ref B L0: 85.9% 13.4%  0.7%
[libx264 @ 0x7ff850009600] ref B L1: 95.4%  4.6%
[libx264 @ 0x7ff850009600] kb/s:817.44
Exiting normally, received signal 15.
